<svg xmlns="http://www.w3.org/2000/svg" xmlns:xlink="http://www.w3.org/1999/xlink" width="1380" zoomAndPan="magnify" viewBox="0 0 1035 464.999988" height="620" preserveAspectRatio="xMidYMid meet" version="1.0"><defs><g/></defs><path stroke-linecap="butt" transform="matrix(1.229131, 0, 0, 1.229131, 8.66365, 210.415402)" fill="none" stroke-linejoin="miter" d="M 21.843133 165.582125 L 21.843133 -63.215855 C 21.843133 -67.776369 24.121801 -70.055038 28.679137 -70.055038 L 76.540701 -70.055038 C 86.767694 -70.055038 94.995688 -66.915116 101.221505 -60.632093 C 107.501349 -54.406277 110.644449 -46.178283 110.644449 -35.95129 L 110.644449 66.525213 C 110.644449 76.809411 107.501349 85.091432 101.221505 91.371276 C 94.995688 97.597093 86.767694 100.711591 76.540701 100.711591 L 49.190328 100.711591 L 49.190328 165.582125 C 49.190328 167.860793 48.052583 168.998538 45.773915 168.998538 L 25.259546 168.998538 C 22.980878 168.998538 21.843133 167.860793 21.843133 165.582125 Z M 49.190328 -42.787294 L 49.190328 73.361217 L 76.540701 73.361217 C 81.098038 73.361217 83.376706 71.082549 83.376706 66.525213 L 83.376706 -35.95129 C 83.376706 -40.508626 81.098038 -42.787294 76.540701 -42.787294 Z M 137.963042 165.582125 L 137.963042 -63.215855 C 137.963042 -67.776369 140.24171 -70.055038 144.799046 -70.055038 L 192.66061 -70.055038 C 202.887603 -70.055038 211.115597 -66.915116 217.341414 -60.632093 C 223.621258 -54.406277 226.764358 -46.178283 226.764358 -35.95129 L 226.764358 63.105622 C 226.764358 72.887687 224.040762 80.530918 218.590391 86.035315 L 218.590391 87.3701 C 224.48569 92.594829 227.43175 100.460524 227.43175 110.967186 L 227.43175 165.582125 C 227.43175 167.860793 226.31943 168.998538 224.094789 168.998538 L 203.583598 168.998538 C 201.30493 168.998538 200.164007 167.860793 200.164007 165.582125 L 200.164007 107.547595 C 200.164007 102.990259 197.885339 100.711591 193.328002 100.711591 L 165.310237 100.711591 L 165.310237 165.582125 C 165.310237 167.860793 164.172492 168.998538 161.893824 168.998538 L 141.379455 168.998538 C 139.100787 168.998538 137.963042 167.860793 137.963042 165.582125 Z M 165.310237 -42.787294 L 165.310237 73.361217 L 192.66061 73.361217 C 197.217946 73.361217 199.496614 71.082549 199.496614 66.525213 L 199.496614 -35.95129 C 199.496614 -40.508626 197.217946 -42.787294 192.66061 -42.787294 Z M 254.80437 -39.370881 C 254.80437 -49.597874 257.918867 -57.825868 264.144684 -64.051685 C 270.424528 -70.331529 278.681125 -73.471451 288.908118 -73.471451 L 309.419309 -73.471451 C 319.703507 -73.471451 327.956925 -70.331529 334.182742 -64.051685 C 340.465764 -57.825868 343.605686 -49.597874 343.605686 -39.370881 L 343.605686 138.231752 C 343.605686 148.515949 340.465764 156.79797 334.182742 163.080993 C 327.956925 169.30681 319.703507 172.418129 309.419309 172.418129 L 288.908118 172.418129 C 278.681125 172.418129 270.424528 169.30681 264.144684 163.080993 C 257.918867 156.79797 254.80437 148.515949 254.80437 138.231752 Z M 282.154743 -39.370881 L 282.154743 138.231752 C 282.154743 142.789088 284.404809 145.070934 288.908118 145.070934 L 309.419309 145.070934 C 313.976645 145.070934 316.258491 142.789088 316.258491 138.231752 L 316.258491 -39.370881 C 316.258491 -43.871012 313.976645 -46.124256 309.419309 -46.124256 L 288.908118 -46.124256 C 284.404809 -46.124256 282.154743 -43.871012 282.154743 -39.370881 Z M 282.154743 -39.370881 " stroke="#000000" stroke-width="11.099725" stroke-opacity="1" stroke-miterlimit="4"/><g fill="#000000" fill-opacity="1"><g transform="translate(16.653, 418.138516)"><g><path d="M 18.890625 -4.203125 L 18.890625 -285.453125 C 18.890625 -291.046875 21.6875 -293.84375 27.28125 -293.84375 L 86.0625 -293.84375 C 98.644531 -293.84375 108.785156 -289.992188 116.484375 -282.296875 C 124.179688 -274.609375 128.03125 -264.46875 128.03125 -251.875 L 128.03125 -125.9375 C 128.03125 -113.34375 124.179688 -103.195312 116.484375 -95.5 C 108.785156 -87.800781 98.644531 -83.953125 86.0625 -83.953125 L 52.46875 -83.953125 L 52.46875 -4.203125 C 52.46875 -1.398438 51.070312 0 48.28125 0 L 23.09375 0 C 20.289062 0 18.890625 -1.398438 18.890625 -4.203125 Z M 52.46875 -260.265625 L 52.46875 -117.53125 L 86.0625 -117.53125 C 91.65625 -117.53125 94.453125 -120.332031 94.453125 -125.9375 L 94.453125 -251.875 C 94.453125 -257.46875 91.65625 -260.265625 86.0625 -260.265625 Z M 52.46875 -260.265625 "/></g></g></g><g fill="#000000" fill-opacity="1"><g transform="translate(159.379687, 418.138516)"><g><path d="M 18.890625 -4.203125 L 18.890625 -285.453125 C 18.890625 -291.046875 21.6875 -293.84375 27.28125 -293.84375 L 86.0625 -293.84375 C 98.644531 -293.84375 108.785156 -289.992188 116.484375 -282.296875 C 124.179688 -274.609375 128.03125 -264.46875 128.03125 -251.875 L 128.03125 -130.125 C 128.03125 -118.09375 124.671875 -108.71875 117.953125 -102 L 117.953125 -100.328125 C 125.234375 -93.890625 128.875 -84.234375 128.875 -71.359375 L 128.875 -4.203125 C 128.875 -1.398438 127.472656 0 124.671875 0 L 99.484375 0 C 96.691406 0 95.296875 -1.398438 95.296875 -4.203125 L 95.296875 -75.5625 C 95.296875 -81.15625 92.492188 -83.953125 86.890625 -83.953125 L 52.46875 -83.953125 L 52.46875 -4.203125 C 52.46875 -1.398438 51.070312 0 48.28125 0 L 23.09375 0 C 20.289062 0 18.890625 -1.398438 18.890625 -4.203125 Z M 52.46875 -260.265625 L 52.46875 -117.53125 L 86.0625 -117.53125 C 91.65625 -117.53125 94.453125 -120.332031 94.453125 -125.9375 L 94.453125 -251.875 C 94.453125 -257.46875 91.65625 -260.265625 86.0625 -260.265625 Z M 52.46875 -260.265625 "/></g></g></g><g fill="#000000" fill-opacity="1"><g transform="translate(305.04484, 418.138516)"><g><path d="M 16.796875 -256.0625 C 16.796875 -268.65625 20.640625 -278.800781 28.328125 -286.5 C 36.023438 -294.195312 46.171875 -298.046875 58.765625 -298.046875 L 83.953125 -298.046875 C 96.546875 -298.046875 106.691406 -294.195312 114.390625 -286.5 C 122.085938 -278.800781 125.9375 -268.65625 125.9375 -256.0625 L 125.9375 -37.78125 C 125.9375 -25.1875 122.085938 -15.039062 114.390625 -7.34375 C 106.691406 0.351562 96.546875 4.203125 83.953125 4.203125 L 58.765625 4.203125 C 46.171875 4.203125 36.023438 0.351562 28.328125 -7.34375 C 20.640625 -15.039062 16.796875 -25.1875 16.796875 -37.78125 Z M 50.375 -256.0625 L 50.375 -37.78125 C 50.375 -32.1875 53.171875 -29.390625 58.765625 -29.390625 L 83.953125 -29.390625 C 89.554688 -29.390625 92.359375 -32.1875 92.359375 -37.78125 L 92.359375 -256.0625 C 92.359375 -261.664062 89.554688 -264.46875 83.953125 -264.46875 L 58.765625 -264.46875 C 53.171875 -264.46875 50.375 -261.664062 50.375 -256.0625 Z M 50.375 -256.0625 "/></g></g></g><g fill="#000000" fill-opacity="1"><g transform="translate(455.781631, 266.194006)"><g><path d="M 148.25 -106.328125 L 148.25 -37.4375 C 148.25 -30.644531 146.601562 -24.40625 143.3125 -18.71875 C 140.019531 -13.03125 135.578125 -8.488281 129.984375 -5.09375 C 124.390625 -1.695312 118.097656 0 111.109375 0 L 11.984375 0 C 10.785156 0 9.734375 -0.445312 8.828125 -1.34375 C 7.929688 -2.25 7.484375 -3.300781 7.484375 -4.5 L 7.484375 -127.890625 C 7.484375 -132.273438 9.03125 -136.015625 12.125 -139.109375 C 15.21875 -142.210938 18.960938 -143.765625 23.359375 -143.765625 L 111.109375 -143.765625 C 118.097656 -143.765625 124.390625 -142.066406 129.984375 -138.671875 C 135.578125 -135.273438 140.019531 -130.78125 143.3125 -125.1875 C 146.601562 -119.601562 148.25 -113.316406 148.25 -106.328125 Z M 62.890625 -115.3125 L 62.890625 -28.453125 L 94.34375 -28.453125 C 95.539062 -28.453125 96.585938 -28.898438 97.484375 -29.796875 C 98.378906 -30.691406 98.828125 -31.738281 98.828125 -32.9375 L 98.828125 -110.8125 C 98.828125 -112.007812 98.378906 -113.054688 97.484375 -113.953125 C 96.585938 -114.859375 95.539062 -115.3125 94.34375 -115.3125 Z M 62.890625 -115.3125 "/></g></g></g><g fill="#000000" fill-opacity="1"><g transform="translate(611.522636, 266.194006)"><g><path d="M 23.359375 0 C 18.960938 0 15.21875 -1.546875 12.125 -4.640625 C 9.03125 -7.734375 7.484375 -11.476562 7.484375 -15.875 L 7.484375 -139.265625 C 7.484375 -140.460938 7.929688 -141.507812 8.828125 -142.40625 C 9.734375 -143.3125 10.785156 -143.765625 11.984375 -143.765625 L 58.40625 -143.765625 C 59.601562 -143.765625 60.648438 -143.3125 61.546875 -142.40625 C 62.441406 -141.507812 62.890625 -140.460938 62.890625 -139.265625 L 62.890625 -28.453125 L 98.828125 -28.453125 L 98.828125 -139.265625 C 98.828125 -140.460938 99.273438 -141.507812 100.171875 -142.40625 C 101.078125 -143.3125 102.128906 -143.765625 103.328125 -143.765625 L 149.75 -143.765625 C 150.945312 -143.765625 151.992188 -143.3125 152.890625 -142.40625 C 153.796875 -141.507812 154.25 -140.460938 154.25 -139.265625 L 154.25 -15.875 C 154.25 -11.476562 152.695312 -7.734375 149.59375 -4.640625 C 146.5 -1.546875 142.757812 0 138.375 0 Z M 23.359375 0 "/></g></g></g><g fill="#000000" fill-opacity="1"><g transform="translate(773.253667, 266.194006)"><g><path d="M 44.625 0 C 37.832031 0 31.59375 -1.695312 25.90625 -5.09375 C 20.21875 -8.488281 15.722656 -13.03125 12.421875 -18.71875 C 9.128906 -24.40625 7.484375 -30.644531 7.484375 -37.4375 L 7.484375 -106.328125 C 7.484375 -113.316406 9.128906 -119.601562 12.421875 -125.1875 C 15.722656 -130.78125 20.21875 -135.273438 25.90625 -138.671875 C 31.59375 -142.066406 37.832031 -143.765625 44.625 -143.765625 L 116.8125 -143.765625 C 118.007812 -143.765625 119.054688 -143.3125 119.953125 -142.40625 C 120.847656 -141.507812 121.296875 -140.460938 121.296875 -139.265625 L 121.296875 -119.796875 C 121.296875 -118.597656 120.847656 -117.550781 119.953125 -116.65625 C 119.054688 -115.757812 118.007812 -115.3125 116.8125 -115.3125 L 67.390625 -115.3125 C 66.191406 -115.3125 65.140625 -114.859375 64.234375 -113.953125 C 63.335938 -113.054688 62.890625 -112.007812 62.890625 -110.8125 L 62.890625 -32.9375 C 62.890625 -31.738281 63.335938 -30.691406 64.234375 -29.796875 C 65.140625 -28.898438 66.191406 -28.453125 67.390625 -28.453125 L 116.8125 -28.453125 C 118.007812 -28.453125 119.054688 -28 119.953125 -27.09375 C 120.847656 -26.195312 121.296875 -25.148438 121.296875 -23.953125 L 121.296875 -4.5 C 121.296875 -3.300781 120.847656 -2.25 119.953125 -1.34375 C 119.054688 -0.445312 118.007812 0 116.8125 0 Z M 44.625 0 "/></g></g></g><g fill="#000000" fill-opacity="1"><g transform="translate(899.044543, 266.194006)"><g><path d="M 1.5 -139.265625 C 1.5 -140.460938 1.945312 -141.507812 2.84375 -142.40625 C 3.738281 -143.3125 4.785156 -143.765625 5.984375 -143.765625 L 121.296875 -143.765625 C 122.492188 -143.765625 123.539062 -143.3125 124.4375 -142.40625 C 125.34375 -141.507812 125.796875 -140.460938 125.796875 -139.265625 L 125.796875 -119.796875 C 125.796875 -118.597656 125.34375 -117.550781 124.4375 -116.65625 C 123.539062 -115.757812 122.492188 -115.3125 121.296875 -115.3125 L 91.34375 -115.3125 L 91.34375 -4.5 C 91.34375 -3.300781 90.894531 -2.25 90 -1.34375 C 89.101562 -0.445312 88.054688 0 86.859375 0 L 40.4375 0 C 39.238281 0 38.1875 -0.445312 37.28125 -1.34375 C 36.382812 -2.25 35.9375 -3.300781 35.9375 -4.5 L 35.9375 -115.3125 L 5.984375 -115.3125 C 4.785156 -115.3125 3.738281 -115.757812 2.84375 -116.65625 C 1.945312 -117.550781 1.5 -118.597656 1.5 -119.796875 Z M 1.5 -139.265625 "/></g></g></g><g fill="#000000" fill-opacity="1"><g transform="translate(773.252769, 420.235778)"><g><path d="M 44.625 0 C 37.832031 0 31.59375 -1.695312 25.90625 -5.09375 C 20.21875 -8.488281 15.722656 -13.03125 12.421875 -18.71875 C 9.128906 -24.40625 7.484375 -30.644531 7.484375 -37.4375 L 7.484375 -106.328125 C 7.484375 -113.316406 9.128906 -119.601562 12.421875 -125.1875 C 15.722656 -130.78125 20.21875 -135.273438 25.90625 -138.671875 C 31.59375 -142.066406 37.832031 -143.765625 44.625 -143.765625 L 116.8125 -143.765625 C 118.007812 -143.765625 119.054688 -143.3125 119.953125 -142.40625 C 120.847656 -141.507812 121.296875 -140.460938 121.296875 -139.265625 L 121.296875 -119.796875 C 121.296875 -118.597656 120.847656 -117.550781 119.953125 -116.65625 C 119.054688 -115.757812 118.007812 -115.3125 116.8125 -115.3125 L 67.390625 -115.3125 C 66.191406 -115.3125 65.140625 -114.859375 64.234375 -113.953125 C 63.335938 -113.054688 62.890625 -112.007812 62.890625 -110.8125 L 62.890625 -32.9375 C 62.890625 -31.738281 63.335938 -30.691406 64.234375 -29.796875 C 65.140625 -28.898438 66.191406 -28.453125 67.390625 -28.453125 L 116.8125 -28.453125 C 118.007812 -28.453125 119.054688 -28 119.953125 -27.09375 C 120.847656 -26.195312 121.296875 -25.148438 121.296875 -23.953125 L 121.296875 -4.5 C 121.296875 -3.300781 120.847656 -2.25 119.953125 -1.34375 C 119.054688 -0.445312 118.007812 0 116.8125 0 Z M 44.625 0 "/></g></g></g><g fill="#000000" fill-opacity="1"><g transform="translate(899.043622, 420.235778)"><g><path d="M 1.5 -139.265625 C 1.5 -140.460938 1.945312 -141.507812 2.84375 -142.40625 C 3.738281 -143.3125 4.785156 -143.765625 5.984375 -143.765625 L 121.296875 -143.765625 C 122.492188 -143.765625 123.539062 -143.3125 124.4375 -142.40625 C 125.34375 -141.507812 125.796875 -140.460938 125.796875 -139.265625 L 125.796875 -119.796875 C 125.796875 -118.597656 125.34375 -117.550781 124.4375 -116.65625 C 123.539062 -115.757812 122.492188 -115.3125 121.296875 -115.3125 L 91.34375 -115.3125 L 91.34375 -4.5 C 91.34375 -3.300781 90.894531 -2.25 90 -1.34375 C 89.101562 -0.445312 88.054688 0 86.859375 0 L 40.4375 0 C 39.238281 0 38.1875 -0.445312 37.28125 -1.34375 C 36.382812 -2.25 35.9375 -3.300781 35.9375 -4.5 L 35.9375 -115.3125 L 5.984375 -115.3125 C 4.785156 -115.3125 3.738281 -115.757812 2.84375 -116.65625 C 1.945312 -117.550781 1.5 -118.597656 1.5 -119.796875 Z M 1.5 -139.265625 "/></g></g></g><g fill="#000000" fill-opacity="1"><g transform="translate(642.200898, 420.235778)"><g><path d="M 23.359375 0 C 18.960938 0 15.21875 -1.546875 12.125 -4.640625 C 9.03125 -7.734375 7.484375 -11.476562 7.484375 -15.875 L 7.484375 -127.890625 C 7.484375 -132.273438 9.03125 -136.015625 12.125 -139.109375 C 15.21875 -142.210938 18.960938 -143.765625 23.359375 -143.765625 L 110.8125 -143.765625 C 112.007812 -143.765625 113.054688 -143.3125 113.953125 -142.40625 C 114.859375 -141.507812 115.3125 -140.460938 115.3125 -139.265625 L 115.3125 -119.796875 C 115.3125 -118.597656 114.859375 -117.550781 113.953125 -116.65625 C 113.054688 -115.757812 112.007812 -115.3125 110.8125 -115.3125 L 62.890625 -115.3125 L 62.890625 -84.453125 L 77.875 -86.859375 L 92.84375 -86.859375 C 94.039062 -86.859375 95.085938 -86.40625 95.984375 -85.5 C 96.890625 -84.601562 97.34375 -83.554688 97.34375 -82.359375 L 97.34375 -61.390625 C 97.34375 -60.191406 96.890625 -59.144531 95.984375 -58.25 C 95.085938 -57.351562 94.039062 -56.90625 92.84375 -56.90625 L 77.875 -56.90625 L 62.890625 -59.296875 L 62.890625 -28.453125 L 110.8125 -28.453125 C 112.007812 -28.453125 113.054688 -28 113.953125 -27.09375 C 114.859375 -26.195312 115.3125 -25.148438 115.3125 -23.953125 L 115.3125 -4.5 C 115.3125 -3.300781 114.859375 -2.25 113.953125 -1.34375 C 113.054688 -0.445312 112.007812 0 110.8125 0 Z M 23.359375 0 "/></g></g></g><g fill="#000000" fill-opacity="1"><g transform="translate(493.928116, 420.235778)"><g><path d="M 7.484375 -28.453125 L 50.921875 -28.453125 L 50.921875 -139.265625 C 50.921875 -140.460938 51.367188 -141.507812 52.265625 -142.40625 C 53.160156 -143.3125 54.207031 -143.765625 55.40625 -143.765625 L 101.828125 -143.765625 C 103.023438 -143.765625 104.070312 -143.3125 104.96875 -142.40625 C 105.875 -141.507812 106.328125 -140.460938 106.328125 -139.265625 L 106.328125 -15.875 C 106.328125 -11.476562 104.773438 -7.734375 101.671875 -4.640625 C 98.578125 -1.546875 94.835938 0 90.453125 0 L 7.484375 0 C 6.285156 0 5.238281 -0.445312 4.34375 -1.34375 C 3.445312 -2.25 3 -3.300781 3 -4.5 L 3 -23.953125 C 3 -25.148438 3.445312 -26.195312 4.34375 -27.09375 C 5.238281 -28 6.285156 -28.453125 7.484375 -28.453125 Z M 7.484375 -28.453125 "/></g></g></g><g fill="#000000" fill-opacity="1"><g transform="translate(339.753569, 100.783104)"><g><path d="M 11.765625 0 C 9.972656 0 8.328125 -0.445312 6.828125 -1.34375 C 5.328125 -2.238281 4.140625 -3.4375 3.265625 -4.9375 C 2.398438 -6.4375 1.96875 -8.082031 1.96875 -9.875 L 1.96875 -28.046875 C 1.96875 -29.890625 2.398438 -31.546875 3.265625 -33.015625 C 4.140625 -34.492188 5.328125 -35.679688 6.828125 -36.578125 C 8.328125 -37.472656 9.972656 -37.921875 11.765625 -37.921875 L 30.8125 -37.921875 C 31.125 -37.921875 31.398438 -37.800781 31.640625 -37.5625 C 31.878906 -37.320312 32 -37.046875 32 -36.734375 L 32 -31.59375 C 32 -31.28125 31.878906 -31.003906 31.640625 -30.765625 C 31.398438 -30.535156 31.125 -30.421875 30.8125 -30.421875 L 17.78125 -30.421875 C 17.457031 -30.421875 17.175781 -30.300781 16.9375 -30.0625 C 16.707031 -29.820312 16.59375 -29.546875 16.59375 -29.234375 L 16.59375 -8.6875 C 16.59375 -8.375 16.707031 -8.097656 16.9375 -7.859375 C 17.175781 -7.617188 17.457031 -7.5 17.78125 -7.5 L 30.8125 -7.5 C 31.125 -7.5 31.398438 -7.378906 31.640625 -7.140625 C 31.878906 -6.910156 32 -6.632812 32 -6.3125 L 32 -1.1875 C 32 -0.875 31.878906 -0.597656 31.640625 -0.359375 C 31.398438 -0.117188 31.125 0 30.8125 0 Z M 11.765625 0 "/></g></g></g><g fill="#000000" fill-opacity="1"><g transform="translate(372.931912, 100.783104)"><g><path d="M 1.96875 -36.734375 C 1.96875 -37.046875 2.085938 -37.320312 2.328125 -37.5625 C 2.566406 -37.800781 2.84375 -37.921875 3.15625 -37.921875 L 15.40625 -37.921875 C 15.71875 -37.921875 15.992188 -37.800781 16.234375 -37.5625 C 16.472656 -37.320312 16.59375 -37.046875 16.59375 -36.734375 L 16.59375 -15.015625 L 26.0625 -15.015625 L 26.0625 -36.734375 C 26.0625 -37.046875 26.179688 -37.320312 26.421875 -37.5625 C 26.660156 -37.800781 26.9375 -37.921875 27.25 -37.921875 L 39.5 -37.921875 C 39.8125 -37.921875 40.085938 -37.800781 40.328125 -37.5625 C 40.566406 -37.320312 40.6875 -37.046875 40.6875 -36.734375 L 40.6875 -1.1875 C 40.6875 -0.875 40.566406 -0.597656 40.328125 -0.359375 C 40.085938 -0.117188 39.8125 0 39.5 0 L 27.25 0 C 26.9375 0 26.660156 -0.117188 26.421875 -0.359375 C 26.179688 -0.597656 26.0625 -0.875 26.0625 -1.1875 L 26.0625 -7.5 L 16.59375 -7.5 L 16.59375 -1.1875 C 16.59375 -0.875 16.472656 -0.597656 16.234375 -0.359375 C 15.992188 -0.117188 15.71875 0 15.40625 0 L 3.15625 0 C 2.84375 0 2.566406 -0.117188 2.328125 -0.359375 C 2.085938 -0.597656 1.96875 -0.875 1.96875 -1.1875 Z M 1.96875 -36.734375 "/></g></g></g><g fill="#000000" fill-opacity="1"><g transform="translate(415.589784, 100.783104)"><g><path d="M 1.96875 -1.1875 L 1.96875 -28.046875 C 1.96875 -29.890625 2.398438 -31.546875 3.265625 -33.015625 C 4.140625 -34.492188 5.328125 -35.679688 6.828125 -36.578125 C 8.328125 -37.472656 9.972656 -37.921875 11.765625 -37.921875 L 30.890625 -37.921875 C 32.734375 -37.921875 34.390625 -37.472656 35.859375 -36.578125 C 37.335938 -35.679688 38.507812 -34.492188 39.375 -33.015625 C 40.25 -31.546875 40.6875 -29.890625 40.6875 -28.046875 L 40.6875 -1.1875 C 40.6875 -0.875 40.566406 -0.597656 40.328125 -0.359375 C 40.085938 -0.117188 39.8125 0 39.5 0 L 27.25 0 C 26.9375 0 26.660156 -0.117188 26.421875 -0.359375 C 26.179688 -0.597656 26.0625 -0.875 26.0625 -1.1875 L 26.0625 -7.5 L 16.59375 -7.5 L 16.59375 -1.1875 C 16.59375 -0.875 16.472656 -0.597656 16.234375 -0.359375 C 15.992188 -0.117188 15.71875 0 15.40625 0 L 3.15625 0 C 2.84375 0 2.566406 -0.117188 2.328125 -0.359375 C 2.085938 -0.597656 1.96875 -0.875 1.96875 -1.1875 Z M 16.59375 -29.234375 L 16.59375 -15.015625 L 26.0625 -15.015625 L 26.0625 -29.234375 C 26.0625 -29.546875 25.941406 -29.820312 25.703125 -30.0625 C 25.472656 -30.300781 25.203125 -30.421875 24.890625 -30.421875 L 17.78125 -30.421875 C 17.457031 -30.421875 17.175781 -30.300781 16.9375 -30.0625 C 16.707031 -29.820312 16.59375 -29.546875 16.59375 -29.234375 Z M 16.59375 -29.234375 "/></g></g></g><g fill="#000000" fill-opacity="1"><g transform="translate(458.247656, 100.783104)"><g><path d="M 1.96875 -33.734375 C 1.96875 -34.890625 2.375 -35.875 3.1875 -36.6875 C 4.007812 -37.507812 5 -37.921875 6.15625 -37.921875 L 23.46875 -37.921875 C 24.625 -37.921875 25.609375 -37.507812 26.421875 -36.6875 C 27.242188 -35.875 27.65625 -34.890625 27.65625 -33.734375 L 27.65625 -7.5 L 31.59375 -7.5 L 31.59375 -36.734375 C 31.59375 -37.046875 31.710938 -37.320312 31.953125 -37.5625 C 32.191406 -37.800781 32.46875 -37.921875 32.78125 -37.921875 L 37.53125 -37.921875 C 37.84375 -37.921875 38.113281 -37.800781 38.34375 -37.5625 C 38.582031 -37.320312 38.703125 -37.046875 38.703125 -36.734375 L 38.703125 -1.1875 C 38.703125 -0.875 38.582031 -0.597656 38.34375 -0.359375 C 38.113281 -0.117188 37.84375 0 37.53125 0 L 14.21875 0 C 13.90625 0 13.628906 -0.117188 13.390625 -0.359375 C 13.148438 -0.597656 13.03125 -0.875 13.03125 -1.1875 L 13.03125 -30.421875 L 9.078125 -30.421875 L 9.078125 -1.1875 C 9.078125 -0.875 8.957031 -0.597656 8.71875 -0.359375 C 8.488281 -0.117188 8.21875 0 7.90625 0 L 3.15625 0 C 2.84375 0 2.566406 -0.117188 2.328125 -0.359375 C 2.085938 -0.597656 1.96875 -0.875 1.96875 -1.1875 Z M 1.96875 -33.734375 "/></g></g></g><g fill="#000000" fill-opacity="1"><g transform="translate(498.930622, 100.783104)"><g><path d="M 1.96875 -1.1875 L 1.96875 -28.046875 C 1.96875 -29.890625 2.398438 -31.546875 3.265625 -33.015625 C 4.140625 -34.492188 5.328125 -35.679688 6.828125 -36.578125 C 8.328125 -37.472656 9.972656 -37.921875 11.765625 -37.921875 L 30.890625 -37.921875 C 32.734375 -37.921875 34.390625 -37.472656 35.859375 -36.578125 C 37.335938 -35.679688 38.507812 -34.492188 39.375 -33.015625 C 40.25 -31.546875 40.6875 -29.890625 40.6875 -28.046875 L 40.6875 -1.1875 C 40.6875 -0.875 40.566406 -0.597656 40.328125 -0.359375 C 40.085938 -0.117188 39.8125 0 39.5 0 L 27.25 0 C 26.9375 0 26.660156 -0.117188 26.421875 -0.359375 C 26.179688 -0.597656 26.0625 -0.875 26.0625 -1.1875 L 26.0625 -7.5 L 16.59375 -7.5 L 16.59375 -1.1875 C 16.59375 -0.875 16.472656 -0.597656 16.234375 -0.359375 C 15.992188 -0.117188 15.71875 0 15.40625 0 L 3.15625 0 C 2.84375 0 2.566406 -0.117188 2.328125 -0.359375 C 2.085938 -0.597656 1.96875 -0.875 1.96875 -1.1875 Z M 16.59375 -29.234375 L 16.59375 -15.015625 L 26.0625 -15.015625 L 26.0625 -29.234375 C 26.0625 -29.546875 25.941406 -29.820312 25.703125 -30.0625 C 25.472656 -30.300781 25.203125 -30.421875 24.890625 -30.421875 L 17.78125 -30.421875 C 17.457031 -30.421875 17.175781 -30.300781 16.9375 -30.0625 C 16.707031 -29.820312 16.59375 -29.546875 16.59375 -29.234375 Z M 16.59375 -29.234375 "/></g></g></g><g fill="#000000" fill-opacity="1"><g transform="translate(541.588495, 100.783104)"><g><path d="M 0.390625 -36.734375 C 0.390625 -37.046875 0.507812 -37.320312 0.75 -37.5625 C 0.988281 -37.800781 1.265625 -37.921875 1.578125 -37.921875 L 32 -37.921875 C 32.3125 -37.921875 32.585938 -37.800781 32.828125 -37.5625 C 33.066406 -37.320312 33.1875 -37.046875 33.1875 -36.734375 L 33.1875 -31.59375 C 33.1875 -31.28125 33.066406 -31.003906 32.828125 -30.765625 C 32.585938 -30.535156 32.3125 -30.421875 32 -30.421875 L 24.09375 -30.421875 L 24.09375 -1.1875 C 24.09375 -0.875 23.972656 -0.597656 23.734375 -0.359375 C 23.503906 -0.117188 23.226562 0 22.90625 0 L 10.671875 0 C 10.347656 0 10.066406 -0.117188 9.828125 -0.359375 C 9.597656 -0.597656 9.484375 -0.875 9.484375 -1.1875 L 9.484375 -30.421875 L 1.578125 -30.421875 C 1.265625 -30.421875 0.988281 -30.535156 0.75 -30.765625 C 0.507812 -31.003906 0.390625 -31.28125 0.390625 -31.59375 Z M 0.390625 -36.734375 "/></g></g></g><g fill="#000000" fill-opacity="1"><g transform="translate(575.161818, 100.783104)"><g><path d="M 1.96875 -36.734375 C 1.96875 -37.046875 2.085938 -37.320312 2.328125 -37.5625 C 2.566406 -37.800781 2.84375 -37.921875 3.15625 -37.921875 L 15.40625 -37.921875 C 15.71875 -37.921875 15.992188 -37.800781 16.234375 -37.5625 C 16.472656 -37.320312 16.59375 -37.046875 16.59375 -36.734375 L 16.59375 -15.015625 L 26.0625 -15.015625 L 26.0625 -36.734375 C 26.0625 -37.046875 26.179688 -37.320312 26.421875 -37.5625 C 26.660156 -37.800781 26.9375 -37.921875 27.25 -37.921875 L 39.5 -37.921875 C 39.8125 -37.921875 40.085938 -37.800781 40.328125 -37.5625 C 40.566406 -37.320312 40.6875 -37.046875 40.6875 -36.734375 L 40.6875 -1.1875 C 40.6875 -0.875 40.566406 -0.597656 40.328125 -0.359375 C 40.085938 -0.117188 39.8125 0 39.5 0 L 27.25 0 C 26.9375 0 26.660156 -0.117188 26.421875 -0.359375 C 26.179688 -0.597656 26.0625 -0.875 26.0625 -1.1875 L 26.0625 -7.5 L 16.59375 -7.5 L 16.59375 -1.1875 C 16.59375 -0.875 16.472656 -0.597656 16.234375 -0.359375 C 15.992188 -0.117188 15.71875 0 15.40625 0 L 3.15625 0 C 2.84375 0 2.566406 -0.117188 2.328125 -0.359375 C 2.085938 -0.597656 1.96875 -0.875 1.96875 -1.1875 Z M 1.96875 -36.734375 "/></g></g></g><g fill="#000000" fill-opacity="1"><g transform="translate(617.819691, 100.783104)"><g><path d="M 17.78125 -36.734375 L 17.78125 -1.1875 C 17.78125 -0.875 17.660156 -0.597656 17.421875 -0.359375 C 17.179688 -0.117188 16.90625 0 16.59375 0 L 4.34375 0 C 4.03125 0 3.753906 -0.117188 3.515625 -0.359375 C 3.273438 -0.597656 3.15625 -0.875 3.15625 -1.1875 L 3.15625 -36.734375 C 3.15625 -37.046875 3.273438 -37.320312 3.515625 -37.5625 C 3.753906 -37.800781 4.03125 -37.921875 4.34375 -37.921875 L 16.59375 -37.921875 C 16.90625 -37.921875 17.179688 -37.800781 17.421875 -37.5625 C 17.660156 -37.320312 17.78125 -37.046875 17.78125 -36.734375 Z M 17.78125 -36.734375 "/></g></g></g><g fill="#000000" fill-opacity="1"><g transform="translate(638.753657, 100.783104)"><g><path d="M 1.96875 -33.734375 C 1.96875 -34.890625 2.375 -35.875 3.1875 -36.6875 C 4.007812 -37.507812 5 -37.921875 6.15625 -37.921875 L 29.3125 -37.921875 C 31.15625 -37.921875 32.8125 -37.472656 34.28125 -36.578125 C 35.757812 -35.679688 36.929688 -34.492188 37.796875 -33.015625 C 38.671875 -31.546875 39.109375 -29.890625 39.109375 -28.046875 L 39.109375 -17.375 C 39.109375 -15.582031 38.671875 -13.9375 37.796875 -12.4375 C 36.929688 -10.9375 35.757812 -9.738281 34.28125 -8.84375 C 32.8125 -7.945312 31.15625 -7.5 29.3125 -7.5 L 16.59375 -7.5 L 16.59375 -1.1875 C 16.59375 -0.875 16.472656 -0.597656 16.234375 -0.359375 C 15.992188 -0.117188 15.71875 0 15.40625 0 L 3.15625 0 C 2.84375 0 2.566406 -0.117188 2.328125 -0.359375 C 2.085938 -0.597656 1.96875 -0.875 1.96875 -1.1875 Z M 24.890625 -30.421875 L 16.59375 -30.421875 L 16.59375 -15.015625 L 24.890625 -15.015625 C 25.203125 -15.015625 25.472656 -15.128906 25.703125 -15.359375 C 25.941406 -15.597656 26.0625 -15.875 26.0625 -16.1875 L 26.0625 -29.234375 C 26.0625 -29.546875 25.941406 -29.820312 25.703125 -30.0625 C 25.472656 -30.300781 25.203125 -30.421875 24.890625 -30.421875 Z M 24.890625 -30.421875 "/></g></g></g><g fill="#000000" fill-opacity="1"><g transform="translate(679.041641, 100.783104)"><g><path d="M 14.21875 -33.578125 L 13.515625 -28.515625 C 13.347656 -27.671875 12.898438 -27.25 12.171875 -27.25 L 4.03125 -27.25 C 3.289062 -27.25 2.84375 -27.671875 2.6875 -28.515625 L 1.96875 -33.578125 L 1.96875 -36.734375 C 1.96875 -37.046875 2.085938 -37.320312 2.328125 -37.5625 C 2.566406 -37.800781 2.84375 -37.921875 3.15625 -37.921875 L 13.03125 -37.921875 C 13.351562 -37.921875 13.628906 -37.800781 13.859375 -37.5625 C 14.097656 -37.320312 14.21875 -37.046875 14.21875 -36.734375 Z M 14.21875 -33.578125 "/></g></g></g></svg>